<svg width="1280" height="640" viewBox="0 0 1280 640" fill="none" xmlns="http://www.w3.org/2000/svg">
  <defs>
    <linearGradient id="bg" x1="120" y1="60" x2="1160" y2="580" gradientUnits="userSpaceOnUse">
      <stop stop-color="#E9F1D8"/>
      <stop offset="1" stop-color="#D4E0D8"/>
    </linearGradient>
    <linearGradient id="card" x1="0" y1="0" x2="1" y2="1">
      <stop stop-color="#13251A" stop-opacity="0.96"/>
      <stop offset="1" stop-color="#264735" stop-opacity="0.96"/>
    </linearGradient>
    <filter id="shadow" x="0" y="0" width="1280" height="640" filterUnits="userSpaceOnUse" color-interpolation-filters="sRGB">
      <feDropShadow dx="0" dy="24" stdDeviation="30" flood-color="#13251A" flood-opacity="0.14"/>
    </filter>
  </defs>

  <rect width="1280" height="640" rx="32" fill="url(#bg)"/>
  <circle cx="1090" cy="112" r="180" fill="#BFD0B6" fill-opacity="0.55"/>
  <circle cx="156" cy="518" r="210" fill="#F1F5E7" fill-opacity="0.85"/>

  <g filter="url(#shadow)">
    <rect x="70" y="74" width="1140" height="492" rx="28" fill="url(#card)"/>
  </g>

  <rect x="118" y="132" width="170" height="170" rx="34" fill="#EDF4E4" fill-opacity="0.1"/>
  <rect x="146" y="160" width="114" height="114" rx="26" stroke="#DDEBCB" stroke-width="10"/>
  <rect x="189" y="194" width="28" height="46" rx="10" fill="#DDEBCB"/>
  <rect x="263" y="194" width="18" height="46" rx="9" fill="#DDEBCB"/>
  <path d="M206 128C232 111 267 111 294 128" stroke="#DDEBCB" stroke-width="10" stroke-linecap="round"/>

  <text x="332" y="206" fill="#F7FBF2" font-size="76" font-weight="700" font-family="PingFang SC, Helvetica, Arial, sans-serif">电池接管</text>
  <text x="336" y="256" fill="#B8D3BE" font-size="28" font-weight="500" font-family="Avenir Next, Helvetica, Arial, sans-serif">Battery Takeover</text>

  <text x="120" y="386" fill="#E9F3E2" font-size="34" font-weight="600" font-family="PingFang SC, Helvetica, Arial, sans-serif">macOS 电池监控、阈值控充、日报复盘</text>
  <text x="120" y="432" fill="#BFD0C0" font-size="26" font-weight="400" font-family="PingFang SC, Helvetica, Arial, sans-serif">CLI + LaunchAgent + Dashboard + Desktop App</text>

  <rect x="120" y="476" width="214" height="52" rx="26" fill="#3A7A50"/>
  <text x="148" y="510" fill="#F8FCF4" font-size="24" font-weight="600" font-family="PingFang SC, Helvetica, Arial, sans-serif">92 / 88 阈值控充</text>

  <rect x="358" y="476" width="192" height="52" rx="26" fill="#F1F5E7" fill-opacity="0.12"/>
  <text x="388" y="510" fill="#F8FCF4" font-size="24" font-weight="600" font-family="PingFang SC, Helvetica, Arial, sans-serif">分钟级采样</text>

  <rect x="574" y="476" width="208" height="52" rx="26" fill="#F1F5E7" fill-opacity="0.12"/>
  <text x="604" y="510" fill="#F8FCF4" font-size="24" font-weight="600" font-family="PingFang SC, Helvetica, Arial, sans-serif">开机自动运行</text>

  <rect x="806" y="476" width="212" height="52" rx="26" fill="#F1F5E7" fill-opacity="0.12"/>
  <text x="836" y="510" fill="#F8FCF4" font-size="24" font-weight="600" font-family="PingFang SC, Helvetica, Arial, sans-serif">轻量桌面入口</text>
</svg>
