<svg width="1600" height="900" viewBox="0 0 1600 900" fill="none" xmlns="http://www.w3.org/2000/svg">
  <defs>
    <linearGradient id="bg" x1="68" y1="62" x2="1516" y2="860" gradientUnits="userSpaceOnUse">
      <stop stop-color="#EDF3E5"/>
      <stop offset="1" stop-color="#D7E1D5"/>
    </linearGradient>
    <linearGradient id="dark" x1="112" y1="88" x2="1490" y2="792" gradientUnits="userSpaceOnUse">
      <stop stop-color="#14241A"/>
      <stop offset="1" stop-color="#214637"/>
    </linearGradient>
  </defs>

  <rect width="1600" height="900" rx="36" fill="url(#bg)"/>
  <rect x="84" y="82" width="1432" height="736" rx="32" fill="url(#dark)"/>

  <text x="126" y="168" fill="#F8FCF4" font-size="64" font-weight="700" font-family="PingFang SC, Helvetica, Arial, sans-serif">功能演示：产品表面</text>
  <text x="128" y="220" fill="#B9D5BE" font-size="28" font-weight="400" font-family="PingFang SC, Helvetica, Arial, sans-serif">不是只有命令行，而是把“运行”和“查看”都做成了可进入的产品面</text>

  <rect x="126" y="286" width="404" height="354" rx="28" fill="#F8FCF4" fill-opacity="0.06" stroke="#DAE8D3" stroke-opacity="0.16"/>
  <text x="162" y="348" fill="#F8FCF4" font-size="36" font-weight="700" font-family="PingFang SC, Helvetica, Arial, sans-serif">LaunchAgent</text>
  <text x="162" y="400" fill="#B7D0BF" font-size="24" font-weight="500" font-family="PingFang SC, Helvetica, Arial, sans-serif">开机自动运行，不依赖手动打开终端</text>
  <rect x="162" y="446" width="332" height="98" rx="22" fill="#F8FCF4" fill-opacity="0.06"/>
  <text x="190" y="500" fill="#F8FCF4" font-size="26" font-weight="600" font-family="Menlo, monospace">com.battery.takeover.agent</text>
  <text x="190" y="532" fill="#9DD0AA" font-size="22" font-weight="600" font-family="PingFang SC, Helvetica, Arial, sans-serif">KeepAlive / RunAtLoad / runtime copy</text>

  <rect x="598" y="286" width="404" height="354" rx="28" fill="#F8FCF4" fill-opacity="0.06" stroke="#DAE8D3" stroke-opacity="0.16"/>
  <text x="634" y="348" fill="#F8FCF4" font-size="36" font-weight="700" font-family="PingFang SC, Helvetica, Arial, sans-serif">桌面入口</text>
  <text x="634" y="400" fill="#B7D0BF" font-size="24" font-weight="500" font-family="PingFang SC, Helvetica, Arial, sans-serif">点击 `电池接管.app`，直接进面板</text>
  <rect x="708" y="448" width="184" height="160" rx="34" fill="#EAF4DF" fill-opacity="0.12" stroke="#EAF4DF" stroke-opacity="0.24"/>
  <rect x="742" y="480" width="116" height="90" rx="22" stroke="#EAF4DF" stroke-width="9"/>
  <rect x="785" y="506" width="30" height="38" rx="10" fill="#EAF4DF"/>
  <rect x="862" y="507" width="18" height="36" rx="9" fill="#EAF4DF"/>
  <path d="M800 456C829 439 866 439 896 456" stroke="#EAF4DF" stroke-width="10" stroke-linecap="round"/>

  <rect x="1070" y="286" width="398" height="354" rx="28" fill="#F8FCF4" fill-opacity="0.06" stroke="#DAE8D3" stroke-opacity="0.16"/>
  <text x="1106" y="348" fill="#F8FCF4" font-size="36" font-weight="700" font-family="PingFang SC, Helvetica, Arial, sans-serif">Dashboard</text>
  <text x="1106" y="400" fill="#B7D0BF" font-size="24" font-weight="500" font-family="PingFang SC, Helvetica, Arial, sans-serif">看电量、调阈值、查动作，一页完成</text>
  <rect x="1108" y="446" width="320" height="146" rx="22" fill="#EEF5E4"/>
  <rect x="1136" y="474" width="108" height="56" rx="14" fill="#FFFFFF"/>
  <rect x="1260" y="474" width="140" height="56" rx="14" fill="#FFFFFF"/>
  <rect x="1136" y="546" width="264" height="18" rx="9" fill="#BFD3C7"/>
  <rect x="1136" y="574" width="221" height="10" rx="5" fill="#D7E0D8"/>
  <path d="M1142 556C1178 554 1207 520 1249 500C1283 485 1331 492 1390 492" stroke="#317A52" stroke-width="4" stroke-linecap="round"/>

  <rect x="126" y="698" width="332" height="54" rx="27" fill="#3A7A50"/>
  <text x="156" y="733" fill="#F8FCF4" font-size="24" font-weight="600" font-family="PingFang SC, Helvetica, Arial, sans-serif">从守护进程到点击入口，完整闭环</text>
</svg>
